<svg width="35" height="32" viewBox="0 0 35 32" fill="none" xmlns="http://www.w3.org/2000/svg">
<path d="M21.6756 2.954C20.5706 1.05 19.0666 0 17.4406 0C15.8146 0 14.3096 1.05 13.2046 2.954L0.935597 24.087C-0.184403 26.034 -0.304403 28.056 0.605597 29.633C1.4716 31.133 3.1706 31.996 5.2696 32H29.6116C31.7136 31.996 33.4156 31.136 34.2786 29.639C35.1836 28.072 35.0616 26.058 33.9436 24.114L21.6756 2.954ZM33.4136 29.139C32.7326 30.319 31.3466 30.997 29.6096 31H5.2706C3.5396 30.997 2.1556 30.316 1.4716 29.133C0.744597 27.873 0.865597 26.216 1.8016 24.587L14.0696 3.456C14.9886 1.872 16.1856 1 17.4406 1C18.6956 1 19.8926 1.872 20.8106 3.456L33.0786 24.613C34.0136 26.239 34.1356 27.889 33.4136 29.139Z" fill="#DAAA02"/>
<path d="M17.4404 20C17.573 20 17.7002 19.9473 17.794 19.8536C17.8878 19.7598 17.9404 19.6326 17.9404 19.5V9.5C17.9404 9.36739 17.8878 9.24021 17.794 9.14645C17.7002 9.05268 17.573 9 17.4404 9C17.3078 9 17.1806 9.05268 17.0869 9.14645C16.9931 9.24021 16.9404 9.36739 16.9404 9.5V19.5C16.9404 19.6326 16.9931 19.7598 17.0869 19.8536C17.1806 19.9473 17.3078 20 17.4404 20Z" fill="#DAAA02"/>
<path d="M17.3765 22.5C16.2735 22.5 15.3765 23.397 15.3765 24.5C15.3765 25.603 16.2735 26.5 17.3765 26.5C18.4795 26.5 19.3765 25.603 19.3765 24.5C19.3765 23.397 18.4795 22.5 17.3765 22.5ZM17.3765 25.5C17.119 25.4885 16.8759 25.3781 16.6977 25.1918C16.5196 25.0055 16.4202 24.7577 16.4202 24.5C16.4202 24.2423 16.5196 23.9945 16.6977 23.8082C16.8759 23.6219 17.119 23.5115 17.3765 23.5C17.6339 23.5115 17.8771 23.6219 18.0552 23.8082C18.2333 23.9945 18.3327 24.2423 18.3327 24.5C18.3327 24.7577 18.2333 25.0055 18.0552 25.1918C17.8771 25.3781 17.6339 25.4885 17.3765 25.5Z" fill="#DAAA02"/>
</svg>
