<svg width="24" height="24" viewBox="0 0 24 24" fill="none" xmlns="http://www.w3.org/2000/svg">
<rect width="24" height="24" fill="white"/>
<path d="M4.43093 12.8219L17.4309 21.8219C17.581 21.9257 17.7565 21.9865 17.9386 21.9977C18.1207 22.0089 18.3024 21.9701 18.464 21.8854C18.6256 21.8007 18.761 21.6735 18.8554 21.5174C18.9499 21.3613 18.9999 21.1824 18.9999 20.9999V2.99993C19.0001 2.81741 18.9502 2.63833 18.8558 2.48211C18.7614 2.32589 18.6261 2.19849 18.4644 2.1137C18.3028 2.02892 18.121 1.98999 17.9389 2.00113C17.7567 2.01228 17.581 2.07307 17.4309 2.17693L4.43093 11.1769C4.29849 11.2694 4.19033 11.3924 4.11564 11.5356C4.04095 11.6788 4.00195 11.8379 4.00195 11.9994C4.00195 12.1609 4.04095 12.3201 4.11564 12.4633C4.19033 12.6065 4.29849 12.7295 4.43093 12.8219Z" fill="#009506"/>
</svg>
