<svg width="94" height="82" viewBox="0 0 94 82" fill="none" xmlns="http://www.w3.org/2000/svg">
<path d="M85.5634 81.7655H14.4612C9.96032 81.7655 6.29892 78.1041 6.29892 73.6032V68.1617H3.57817C2.07432 68.1617 0.857422 66.9448 0.857422 65.441V49.1165C0.857422 47.6127 2.07432 46.3958 3.57817 46.3958H6.29892V35.5128H3.57817C2.07432 35.5128 0.857422 34.2959 0.857422 32.792V16.4676C0.857422 14.9637 2.07432 13.7468 3.57817 13.7468H6.29892V8.30531C6.29892 3.80447 9.96032 0.143066 14.4612 0.143066H85.5634C90.0642 0.143066 93.7256 3.80447 93.7256 8.30531V73.6032C93.7256 78.1041 90.0642 81.7655 85.5634 81.7655Z" fill="#E2BC07"/>
<path d="M85.5633 0.142578H50.0122V81.765H85.5633C90.0641 81.765 93.7255 78.1036 93.7255 73.6028V8.30482C93.7255 3.80398 90.0641 0.142578 85.5633 0.142578Z" fill="#DAAB02"/>
<path d="M80.1211 49.116C78.6173 49.116 77.4004 47.8991 77.4004 46.3952V35.5123C77.4004 34.0084 78.6173 32.7915 80.1211 32.7915C81.625 32.7915 82.8419 34.0084 82.8419 35.5123V46.3952C82.8419 47.8991 81.625 49.116 80.1211 49.116Z" fill="#E3E7EA"/>
<path d="M61.3505 48.4446C62.7763 46.2937 63.6169 43.7225 63.6169 40.9545C63.6169 38.1866 62.7763 35.6154 61.3505 33.4645L73.7029 21.1121C74.7656 20.0494 74.7656 18.3275 73.7029 17.2648C72.6401 16.2021 70.9183 16.2021 69.8555 17.2648L57.5032 29.6172C55.3523 28.1913 52.781 27.3508 50.0131 27.3508C47.2452 27.3508 44.6739 28.1913 42.5231 29.6172L30.1707 17.2648C29.108 16.2021 27.3861 16.2021 26.3234 17.2648C25.2607 18.3275 25.2607 20.0494 26.3234 21.1121L38.6758 33.4645C37.2499 35.6154 36.4094 38.1866 36.4094 40.9545C36.4094 43.7225 37.2499 46.2937 38.6758 48.4446L26.3234 60.797C25.2607 61.8597 25.2607 63.5815 26.3234 64.6443C27.3861 65.707 29.108 65.707 30.1707 64.6443L42.5231 52.2919C44.6739 53.7178 47.2452 54.5583 50.0131 54.5583C52.781 54.5583 55.3523 53.7178 57.5032 52.2919L69.8555 64.6443C70.9183 65.707 72.6401 65.707 73.7029 64.6443C74.7656 63.5815 74.7656 61.8597 73.7029 60.797L61.3505 48.4446ZM41.8509 40.9545C41.8509 36.4537 45.5123 32.7923 50.0131 32.7923C54.514 32.7923 58.1754 36.4537 58.1754 40.9545C58.1754 45.4554 54.514 49.1168 50.0131 49.1168C45.5123 49.1168 41.8509 45.4554 41.8509 40.9545Z" fill="#FFF5F5"/>
<path d="M58.1749 40.9545C58.1749 45.4554 54.5135 49.1168 50.0127 49.1168V54.5583C52.7806 54.5583 55.3519 53.7178 57.5027 52.2919L69.8551 64.6443C70.9178 65.707 72.6397 65.707 73.7024 64.6443C74.7651 63.5815 74.7651 61.8597 73.7024 60.797L61.3501 48.4446C62.7759 46.2937 63.6164 43.7225 63.6164 40.9545C63.6164 38.1866 62.7759 35.6154 61.3501 33.4645L73.7024 21.1121C74.7651 20.0494 74.7651 18.3275 73.7024 17.2648C72.6397 16.2021 70.9178 16.2021 69.8551 17.2648L57.5027 29.6172C55.3519 28.1913 52.7806 27.3508 50.0127 27.3508V32.7923C54.5135 32.7923 58.1749 36.4537 58.1749 40.9545Z" fill="#E3E7EA"/>
</svg>
